<svg width="13" height="16" viewBox="0 0 13 16" fill="none" xmlns="http://www.w3.org/2000/svg">
<path d="M6.49833 10.0604C6.61486 9.94695 6.67313 9.80861 6.67313 9.64542C6.67313 9.48222 6.61632 9.34236 6.50271 9.22583C6.38924 9.10944 6.2509 9.05125 6.08771 9.05125C5.92451 9.05125 5.78472 9.10799 5.66833 9.22146C5.55181 9.33507 5.49354 9.47347 5.49354 9.63667C5.49354 9.79986 5.55035 9.93965 5.66396 10.056C5.77743 10.1724 5.91576 10.2306 6.07896 10.2306C6.24215 10.2306 6.38195 10.1739 6.49833 10.0604ZM5.54167 7.7275H6.625V3.87188H5.54167V7.7275ZM6.08333 15.1185C4.33653 14.6548 2.88597 13.6401 1.73167 12.0746C0.577222 10.5089 0 8.75806 0 6.82208V2.33979L6.08333 0L12.1667 2.33979V6.82208C12.1667 8.75806 11.5894 10.5089 10.435 12.0746C9.28069 13.6401 7.83014 14.6548 6.08333 15.1185ZM6.08333 13.9888C7.52778 13.5408 8.72222 12.645 9.66667 11.3013C10.6111 9.9575 11.0833 8.46445 11.0833 6.82208V3.07208L6.08333 1.16333L1.08333 3.07208V6.82208C1.08333 8.46445 1.55556 9.9575 2.5 11.3013C3.44444 12.645 4.63889 13.5408 6.08333 13.9888Z" fill="#1E53E6"/>
</svg>
